<svg width="20" height="19" fill="none" xmlns="http://www.w3.org/2000/svg"><path d="M17 7h-1V3a3 3 0 00-3-3H3a3 3 0 00-3 3v12a1 1 0 001.6.8l3.47-2.6a1 1 0 01.6-.2H8v1a3 3 0 003 3h4.39a1 1 0 01.56.17l2.5 1.66A1 1 0 0019 19a1 1 0 00.47-.12A1 1 0 0020 18v-8a3 3 0 00-3-3zM3.87 11.6L2 13V3a1 1 0 011-1h10a1 1 0 011 1v7a1 1 0 01-1 1H5.67a3 3 0 00-1.8.6zM18 16.13l-.93-.61a3 3 0 00-1.68-.52H11a1 1 0 01-1-1v-1h3a3 3 0 003-3V9h1a1 1 0 011 1v6.13z" fill="#9DADBB"/><path d="M6 6h4a1 1 0 100-2H6a1 1 0 000 2zm5 2a1 1 0 00-1-1H6a1 1 0 000 2h4a1 1 0 001-1z" fill="#9DADBB"/></svg>