<svg width="9" height="10" fill="none" xmlns="http://www.w3.org/2000/svg"><path d="M7.614 6.425a1.368 1.368 0 00-1.996 0l-.18.188-2.296-2.389.18-.187A1.49 1.49 0 003.736 3c0-.374-.136-.754-.414-1.038L2.28.87a1.137 1.137 0 00-.824-.35 1.107 1.107 0 00-.992.6A3.995 3.995 0 000 3c0 .992.365 1.99 1.096 2.75l2.875 2.99a3.66 3.66 0 002.645 1.14c.622 0 1.244-.159 1.806-.482A1.19 1.19 0 009 8.366c0-.307-.11-.619-.338-.857L7.614 6.425zM8.59.521H6.606a.417.417 0 00-.409.426.42.42 0 00.41.425h.998L5.847 3.199a.44.44 0 000 .601.4.4 0 00.578 0l1.757-1.827v1.038a.42.42 0 00.409.426A.42.42 0 009 3.01V.946a.434.434 0 00-.12-.3.4.4 0 00-.29-.125z" fill="#C1C1C1"/></svg>