<svg width="68" height="56" fill="none" xmlns="http://www.w3.org/2000/svg"><path d="M62.248 19.869h-.43v-4.974c0-3.071-2.518-5.589-5.588-5.589h-.676V6.604c0-3.377-2.763-6.141-6.14-6.141H14.9c-3.377 0-6.14 2.764-6.14 6.141V43.39c0 3.07 2.517 5.589 5.588 5.589H56.23c3.07 0 5.588-2.518 5.588-5.589v-6.264h.43a4.823 4.823 0 004.852-4.851V24.72c0-2.64-2.15-4.851-4.852-4.851zM14.9 3.902h34.452c1.474 0 2.702 1.228 2.702 2.702v2.702H14.9c-1.473 0-2.702-1.228-2.702-2.702s1.229-2.702 2.702-2.702zm43.48 39.487c0 1.167-.983 2.15-2.15 2.15H14.348c-1.167 0-2.15-.983-2.15-2.15V12.131c.799.43 1.72.614 2.702.614h41.27c1.166 0 2.149.983 2.149 2.15v4.974h-6.325a7.548 7.548 0 00-7.554 7.553v2.211a7.548 7.548 0 007.553 7.554h6.326v6.202h.061zm5.28-11.115a1.39 1.39 0 01-1.412 1.412H51.993a4.05 4.05 0 01-4.054-4.053v-2.21a4.05 4.05 0 014.053-4.054h10.256a1.39 1.39 0 011.413 1.413v7.492z" fill="#2EBBE1"/><path d="M53.65 31.23a2.702 2.702 0 100-5.404 2.702 2.702 0 000 5.404z" fill="#2EBBE1"/><circle cx="16.707" cy="38.845" r="14.707" fill="#fff" stroke="#2EBBE1" stroke-width="4"/><path d="M14.552 43.812a.5.5 0 00.5.5h3.311a.5.5 0 00.5-.5v-4.467h2.811a.5.5 0 00.354-.854l-4.967-4.967a.5.5 0 00-.707 0l-4.967 4.967a.5.5 0 00.353.854h2.812v4.467z" fill="#2EBBE1" stroke="#2EBBE1" stroke-linejoin="round"/></svg>