<svg width="50" height="50" fill="none" xmlns="http://www.w3.org/2000/svg"><path clip-rule="evenodd" d="M47.514 37.41c-1.675-3.141-7.855-6.733-7.855-6.733-1.398-.79-3.083-.878-3.88.531 0 0-2.01 2.389-2.52 2.732-2.333 1.567-4.491 1.507-6.673-.657l-5.068-5.028-5.07-5.028c-2.18-2.164-2.24-4.305-.662-6.62.346-.506 2.755-2.499 2.755-2.499 1.42-.791 1.33-2.463.535-3.85 0 0-3.62-6.13-6.787-7.791a3.496 3.496 0 00-4.08.607L5.972 5.296c-7.1 7.043-3.604 14.996 3.496 22.039l6.487 6.438 6.49 6.435c7.1 7.044 15.116 10.511 22.216 3.468l2.238-2.221a3.42 3.42 0 00.614-4.045z" stroke="#2EBBE1" stroke-width="4" stroke-linecap="round"/><path d="M43.833 7l-11 12m-.833.6v-8.267m0 8.267h8.333" stroke="#2EBBE1" stroke-width="4" stroke-linecap="round"/></svg>