<svg width="18" height="17" fill="none" xmlns="http://www.w3.org/2000/svg"><rect x="3" width="20" height="3" rx="1.5" transform="rotate(45 3 0)" fill="#fff"/><rect x="3" width="20" height="3" rx="1.5" transform="rotate(45 3 0)" fill="#fff"/><rect x="3" width="20" height="3" rx="1.5" transform="rotate(45 3 0)" fill="#fff"/><rect x="3" width="20" height="3" rx="1.5" transform="rotate(45 3 0)" fill="#fff"/><rect width="20" height="3" rx="1.5" transform="scale(-1 1) rotate(45 -7.5 -18.107)" fill="#fff"/><rect width="20" height="3" rx="1.5" transform="scale(-1 1) rotate(45 -7.5 -18.107)" fill="#fff"/><rect width="20" height="3" rx="1.5" transform="scale(-1 1) rotate(45 -7.5 -18.107)" fill="#fff"/><rect width="20" height="3" rx="1.5" transform="scale(-1 1) rotate(45 -7.5 -18.107)" fill="#fff"/></svg>