<svg width="75" height="75" fill="none" xmlns="http://www.w3.org/2000/svg"><path d="M63.885 42.31a1.34 1.34 0 00.38-.95l-.047-16.407a1.345 1.345 0 00-.38-.95L46.098 6.262a6.053 6.053 0 00-8.56 0L6.153 37.65a6.053 6.053 0 000 8.56l22.636 22.637a6.053 6.053 0 008.56 0L63.885 42.31zM35.447 66.946a3.363 3.363 0 01-4.756 0L8.055 44.308a3.363 3.363 0 010-4.755L39.44 8.166a3.363 3.363 0 014.756 0l17.358 17.358v15.313L35.447 66.945z" fill="#2EBBE1" stroke="#2EBBE1" stroke-width="2"/><path d="M25.365 28.235L13.571 40.028a1.345 1.345 0 000 1.902l19.023 19.023a1.345 1.345 0 001.902 0l11.793-11.794a1.345 1.345 0 000-1.902L27.267 28.235a1.345 1.345 0 00-1.902 0zm.951 2.853l17.12 17.12-9.891 9.891-17.12-17.12 9.891-9.891zM37.682 17.82a1.345 1.345 0 001.902 0l2.616-2.616a1.345 1.345 0 10-1.903-1.902l-2.615 2.616a1.345 1.345 0 000 1.902zm4.755 4.755a1.345 1.345 0 001.903 0l2.615-2.615a1.345 1.345 0 10-1.902-1.902l-2.616 2.615a1.345 1.345 0 000 1.902zm4.756 4.755a1.345 1.345 0 001.902 0l2.616-2.615a1.345 1.345 0 10-1.903-1.902l-2.615 2.616a1.345 1.345 0 000 1.902z" fill="#2EBBE1" stroke="#2EBBE1" stroke-width="2"/></svg>