<svg width="16" height="16" fill="none" xmlns="http://www.w3.org/2000/svg"><path fill-rule="evenodd" clip-rule="evenodd" d="M16 4.19a.381.381 0 01-.762 0V1.143a.38.38 0 00-.38-.381H1.142a.38.38 0 00-.38.38v13.716c0 .21.17.38.38.38h13.716c.211 0 .38-.169.38-.38v-3.049a.38.38 0 01.762 0v3.048A1.14 1.14 0 0114.858 16H1.142A1.14 1.14 0 010 14.858V1.142C0 .51.51 0 1.142 0h13.716C15.49 0 16 .511 16 1.143V4.19zm-2.016 4.07l-4.602 4.574c-.36.359-.898-.18-.539-.538l3.652-3.646c.147-.148.1-.27-.109-.27h-9.19a.381.381 0 010-.76h9.19c.205 0 .257-.121.109-.27L8.843 3.704c-.359-.359.18-.897.539-.538l4.602 4.56a.375.375 0 010 .534z" fill="#9DADBB"/></svg>