<svg width="16" height="17" fill="none" xmlns="http://www.w3.org/2000/svg"><path d="M15.731 5.647c-1.133-4.04-5.494-6.454-9.78-5.4C1.686 1.303-.863 5.45.27 9.492c.529 1.913 1.794 3.468 3.436 4.452L1.591 17l8.439-2.11c4.285-1.055 6.834-5.202 5.701-9.243zm-7.023 5.739h-1.51V10.17h1.51v1.216zm.019-2.825v.697h-1.51v-2.02h.755c.623 0 1.132-.483 1.132-1.073s-.51-1.072-1.132-1.072c-.623 0-1.133.482-1.133 1.072h-1.51c0-1.376 1.189-2.503 2.643-2.503 1.453 0 2.643 1.127 2.643 2.503 0 1.127-.793 2.092-1.888 2.396z" fill="#2EBBE1"/></svg>