<svg width="20" height="20" fill="none" xmlns="http://www.w3.org/2000/svg"><path d="M10 0a10 10 0 00-6.73 2.62 1 1 0 00-.67-.27 1 1 0 00-1 1v2.42L4 5.75A1 1 0 004.7 4 7.85 7.85 0 019 2v.64a1 1 0 002 0v-.57A8 8 0 0117.93 9H17a1 1 0 100 2h.94A8 8 0 0111 17.93V17a1 1 0 00-2 0v.94A8 8 0 012.06 11H3a1 1 0 000-2H1a1 1 0 00-1 1A10 10 0 1010 0z" fill="#9DADBB"/><path d="M10 13a1 1 0 00.78-.38l4-5a1.002 1.002 0 00-.105-1.47 1 1 0 00-1.455.23l-3.43 4.28-2.24-1.49a1 1 0 00-1.1 1.66l3 2A.94.94 0 0010 13z" fill="#9DADBB"/></svg>