<svg width="24" height="23" fill="none" xmlns="http://www.w3.org/2000/svg"><path d="M19.897 8.414h-1.148V3.821A3.445 3.445 0 0015.304.376H3.822A3.445 3.445 0 00.377 3.821V17.6a1.148 1.148 0 001.249 1.142 1.15 1.15 0 00.588-.223L6.2 15.533c.198-.149.44-.23.688-.23h2.676v1.149a3.444 3.444 0 003.444 3.444h5.041c.23 0 .453.068.643.196l2.87 1.906c.188.125.407.193.632.195.189-.001.374-.048.54-.138a1.147 1.147 0 00.609-1.01v-9.186a3.445 3.445 0 00-3.445-3.445zM4.821 13.696l-2.148 1.607V3.822a1.148 1.148 0 011.149-1.148h11.482a1.148 1.148 0 011.148 1.148v8.038a1.148 1.148 0 01-1.148 1.148H6.887c-.745 0-1.47.242-2.066.689zm16.224 5.202l-1.068-.7a3.445 3.445 0 00-1.929-.598h-5.04a1.148 1.148 0 01-1.149-1.148v-1.149h3.445a3.445 3.445 0 003.445-3.444V10.71h1.148a1.148 1.148 0 011.148 1.148v7.039z" fill="#2EBBE1"/><path d="M7.266 7.266h4.593a1.148 1.148 0 100-2.297H7.266a1.148 1.148 0 000 2.297zm5.742 2.296a1.148 1.148 0 00-1.149-1.148H7.266a1.148 1.148 0 000 2.297h4.593a1.149 1.149 0 001.149-1.149z" fill="#2EBBE1"/></svg>