<svg width="59" height="59" fill="none" xmlns="http://www.w3.org/2000/svg"><path d="M27.484 1.993c-3.422 0-6.199 2.786-6.199 6.22v8.293a.694.694 0 00.423.647.688.688 0 00.955-.647V8.213a4.804 4.804 0 014.82-4.838h23.418a4.804 4.804 0 014.822 4.838V31.71a4.804 4.804 0 01-4.822 4.837H27.484a4.804 4.804 0 01-4.822-4.837v-4.147a.692.692 0 00-.688-.7.688.688 0 00-.689.7v4.147c0 3.434 2.777 6.22 6.199 6.22H50.9c3.422 0 6.2-2.786 6.2-6.22V8.213c0-3.434-2.777-6.22-6.2-6.22H27.484zM8.199 21.343C4.777 21.343 2 24.13 2 27.563V51.06c0 3.434 2.777 6.22 6.199 6.22h23.417c3.422 0 6.2-2.786 6.2-6.22v-8.293a.694.694 0 00-.69-.7.687.687 0 00-.688.7v8.293a4.804 4.804 0 01-4.822 4.838H8.2a4.804 4.804 0 01-4.822-4.838V27.563A4.804 4.804 0 018.2 22.726h23.417a4.804 4.804 0 014.822 4.837v4.147a.692.692 0 00.688.7.688.688 0 00.69-.7v-4.147c0-3.433-2.778-6.22-6.2-6.22H8.2z" fill="#000" stroke="#2EBBE1" stroke-width="3"/></svg>