<svg width="14" height="14" fill="none" xmlns="http://www.w3.org/2000/svg"><path d="M7 1C3.69 1 1 3.69 1 7c0 .146.132.283.28.283A.29.29 0 001.557 7 5.438 5.438 0 017 1.558c1.88 0 3.512.89 4.487 2.316L9.403 3.65a.29.29 0 00-.325.245.29.29 0 00.264.309l2.65.279c.166.019.327-.14.31-.305l-.279-2.79a.29.29 0 00-.31-.254.29.29 0 00-.248.31l.17 1.692C10.537 1.807 8.868 1 7 1zm5.69 5.717a.29.29 0 00-.248.283A5.438 5.438 0 017 12.442c-1.882 0-3.516-.89-4.491-2.32l2.088.223a.29.29 0 00.325-.245.29.29 0 00-.264-.31l-2.65-.278a.28.28 0 00-.057 0 .29.29 0 00-.253.305l.279 2.79a.291.291 0 00.307.25.291.291 0 00.25-.306l-.17-1.688C3.465 12.193 5.134 13 7 13c3.31 0 6-2.69 6-6 0-.156-.152-.3-.31-.283z" fill="#9DAEBE" stroke="#9DAEBE" stroke-width=".4"/></svg>