<svg version="1.0" xmlns="http://www.w3.org/2000/svg" width="400" height="400" viewBox="0 0 300 300"><path d="M79 26.2c-9.3 1.3-14.8 5-21 13.8-1.4 2-2.6 2.2-11 2.4-11.1.3-15.8 1.5-22.2 5.5-4.8 3-9.5 9-10.3 12.9-.2 1.2-.7 2.7-1 3.3-1 1.5-.6 18.3.5 25.8 2.3 14 2.7 16 5.7 26.1 1.4 4.7 3 9.1 3.5 9.7.6.7.8 1.3.5 1.3-.3 0 .8 2.7 2.4 6 1.6 3.3 2.9 6.3 2.9 6.6 0 .2.5 1 1 1.7.6.7 2.9 4.1 5.1 7.7 2.3 3.6 4.4 6.7 4.8 7 1.7 1.4 6.1 8.2 8.7 13.5 3.7 7.7 9.1 13.1 14.5 14.5 2.5.7 7.3.9 11.6.6 4-.3 7.3-.2 7.3.2s-1.6 3.1-3.5 6c-9.7 14.4-9.3 25.3 1.9 49.7 2.1 4.4 4.1 8.9 4.6 10 4 9.1 7.3 15.4 9.3 17.7 3.6 4.1 8.9 6 16.1 5.7 5.6-.2 19.7-3.8 27.1-6.9 8-3.4 24-11.3 24.3-12.1.2-.5.8-.9 1.3-.9 1.1 0 1.8-.5 7.4-5.4 3.7-3.2 6.5-9.1 8-17.2.2-1 .4-2 .5-2.2.4-.3.6-1.3 1.5-7.2.5-3 1-6 1.1-6.5.1-.6.2-1.7.3-2.6.1-1.5 2.4-1.7 20.4-2.1 21.8-.4 24.3-.9 29.5-6.6 2-2.1 2.5-2.2 3.5-1 2.3 2.8 8.2 6.5 12.7 8 4 1.3 17.4 1.6 22 .5 10.4-2.5 19-12.7 21.5-25.6.7-3.7.7-15.9 0-20.6-.9-5.2-4.6-12.5-8.6-17-11-12-35-12.3-46.7-.5-3 2.9-3.2 3-4.1 1.1-1.4-2.5-7.3-6.1-11.4-6.9-1.7-.3-11.6-.6-22-.6-11.7-.1-18.7-.5-18.8-1.1-.2-2.6-1.3-9.1-2.3-14.1-.5-2.7-2.7-10.5-3.4-12.4-.3-.8-.6-1.7-.7-2-.7-3-3-8.8-3.8-9.8-.5-.6-.7-1.2-.4-1.2 1.1 0-9.6-20.7-14.6-28-9.9-14.8-22.2-27.8-32.7-34.8-6.3-4.2-18.9-9.8-24-10.7-9-1.7-13.9-2-19-1.3zm189.6 128.5c9.9 6.5 12 29.4 3.7 39.4-6.1 7.2-17.3 7.9-24.1 1.6-5-4.6-6.6-9.5-6.6-19.8-.1-8.9.1-9.9 2.9-14.5 4.1-6.6 10-9.8 16.9-8.9 2.6.3 5.9 1.3 7.2 2.2zm-57.3-.4c7.2.5 9.7 2.5 9.2 7.2-.3 3.5-1.9 5.7-4.5 6.4-.8.2-5.8.4-11 .5l-9.5.1-.3-7.2-.3-7.2 3.8-.3c2.1-.2 4.5-.2 5.3-.1.8.1 4.1.4 7.3.6zm8.2 28.7c4.6 4.3 2.7 12.7-3.2 14.7-2.2.7-15.3.9-20.5.4-.5-.1-.8-4.1-.8-9v-8.8l11 .2c10 .2 11.3.5 13.5 2.5z"/></svg>