<svg width="18" height="17" viewBox="0 0 18 17" fill="none" xmlns="http://www.w3.org/2000/svg">
<rect x="3" width="20" height="3" rx="1.5" transform="rotate(45 3 0)" fill="white"/>
<rect x="3" width="20" height="3" rx="1.5" transform="rotate(45 3 0)" fill="white"/>
<rect x="3" width="20" height="3" rx="1.5" transform="rotate(45 3 0)" fill="white"/>
<rect x="3" width="20" height="3" rx="1.5" transform="rotate(45 3 0)" fill="white"/>
<rect width="20" height="3" rx="1.5" transform="matrix(-0.707107 0.707107 0.707107 0.707107 15 0)" fill="white"/>
<rect width="20" height="3" rx="1.5" transform="matrix(-0.707107 0.707107 0.707107 0.707107 15 0)" fill="white"/>
<rect width="20" height="3" rx="1.5" transform="matrix(-0.707107 0.707107 0.707107 0.707107 15 0)" fill="white"/>
<rect width="20" height="3" rx="1.5" transform="matrix(-0.707107 0.707107 0.707107 0.707107 15 0)" fill="white"/>
</svg>
