<svg width="20" height="20" viewBox="0 0 20 20" fill="none" xmlns="http://www.w3.org/2000/svg">
<path d="M10 0C7.50862 0.00449069 5.10864 0.938808 3.27 2.62C3.08811 2.44966 2.84917 2.35338 2.6 2.35C2.33478 2.35 2.08043 2.45536 1.89289 2.64289C1.70536 2.83043 1.6 3.08478 1.6 3.35V5.77L4 5.75C4.20643 5.75815 4.41031 5.70217 4.58363 5.58974C4.75695 5.47732 4.8912 5.31398 4.96792 5.12217C5.04465 4.93036 5.06008 4.71949 5.01211 4.51855C4.96413 4.31761 4.8551 4.13646 4.7 4C5.89287 2.90597 7.39475 2.20742 9 2V2.64C9 2.90522 9.10536 3.15957 9.29289 3.34711C9.48043 3.53464 9.73478 3.64 10 3.64C10.2652 3.64 10.5196 3.53464 10.7071 3.34711C10.8946 3.15957 11 2.90522 11 2.64V2.07C12.76 2.29319 14.3959 3.0951 15.6504 4.34959C16.9049 5.60408 17.7068 7.23998 17.93 9H17C16.7348 9 16.4804 9.10536 16.2929 9.29289C16.1054 9.48043 16 9.73478 16 10C16 10.2652 16.1054 10.5196 16.2929 10.7071C16.4804 10.8946 16.7348 11 17 11H17.94C17.7163 12.7615 16.913 14.3985 15.6565 15.6532C14.4 16.9079 12.7618 17.7089 11 17.93V17C11 16.7348 10.8946 16.4804 10.7071 16.2929C10.5196 16.1054 10.2652 16 10 16C9.73478 16 9.48043 16.1054 9.29289 16.2929C9.10536 16.4804 9 16.7348 9 17V17.94C7.23669 17.7184 5.59736 16.916 4.34071 15.6593C3.08405 14.4026 2.28161 12.7633 2.06 11H3C3.26522 11 3.51957 10.8946 3.70711 10.7071C3.89464 10.5196 4 10.2652 4 10C4 9.73478 3.89464 9.48043 3.70711 9.29289C3.51957 9.10536 3.26522 9 3 9H1C0.734784 9 0.48043 9.10536 0.292893 9.29289C0.105357 9.48043 0 9.73478 0 10C0 11.9778 0.58649 13.9112 1.6853 15.5557C2.78412 17.2002 4.3459 18.4819 6.17317 19.2388C8.00043 19.9957 10.0111 20.1937 11.9509 19.8079C13.8907 19.422 15.6725 18.4696 17.0711 17.0711C18.4696 15.6725 19.422 13.8907 19.8079 11.9509C20.1937 10.0111 19.9957 8.00043 19.2388 6.17317C18.4819 4.3459 17.2002 2.78412 15.5557 1.6853C13.9112 0.58649 11.9778 0 10 0Z" fill="#9DADBB"/>
<path d="M10.0001 13C10.1503 12.9993 10.2984 12.9648 10.4335 12.899C10.5685 12.8332 10.687 12.7379 10.7801 12.62L14.7801 7.62002C14.8751 7.51932 14.9482 7.39998 14.9948 7.26955C15.0413 7.13913 15.0602 7.00046 15.0503 6.86234C15.0405 6.72422 15.002 6.58965 14.9374 6.46716C14.8729 6.34467 14.7835 6.23694 14.6751 6.15077C14.5667 6.06461 14.4416 6.00189 14.3077 5.96661C14.1738 5.93132 14.034 5.92423 13.8973 5.94578C13.7605 5.96733 13.6296 6.01706 13.5131 6.0918C13.3965 6.16655 13.2967 6.2647 13.2201 6.38002L9.79009 10.66L7.55009 9.17002C7.33052 9.05224 7.0749 9.02067 6.83327 9.0815C6.59165 9.14233 6.38144 9.29116 6.2438 9.49886C6.10617 9.70656 6.05103 9.95816 6.08919 10.2044C6.12735 10.4506 6.25605 10.6737 6.45009 10.83L9.45009 12.83C9.61113 12.9428 9.80349 13.0023 10.0001 13Z" fill="#9DADBB"/>
</svg>
