<svg width="14" height="14" viewBox="0 0 14 14" fill="none" xmlns="http://www.w3.org/2000/svg">
<path d="M7 1C3.6896 1 1 3.68959 1 7C1 7.14604 1.13162 7.28305 1.27907 7.28305C1.42652 7.28305 1.56023 7.14744 1.55814 7C1.55814 3.99123 3.99124 1.55814 7 1.55814C8.87981 1.55814 10.5116 2.44711 11.4869 3.87355L9.40262 3.65116C9.25297 3.62525 9.09421 3.74463 9.07757 3.89559C9.06093 4.04655 9.18987 4.19764 9.34157 4.20494L11.9927 4.48401C12.1578 4.503 12.319 4.34407 12.3023 4.17878L12.0233 1.38808C12.0103 1.24011 11.8612 1.11838 11.7137 1.13517C11.5672 1.15032 11.4482 1.29851 11.4651 1.44477L11.6352 3.13663C10.5365 1.80684 8.8681 1 7 1ZM12.6904 6.71657C12.5533 6.73164 12.4389 6.86208 12.4419 7C12.4419 10.0088 10.0088 12.4419 7 12.4419C5.11817 12.4419 3.48364 11.5516 2.50872 10.1221L4.59738 10.3445C4.74703 10.3704 4.90579 10.251 4.92243 10.1001C4.93907 9.94909 4.81013 9.798 4.65843 9.7907L2.00727 9.51163C1.98844 9.50971 1.96941 9.50971 1.95058 9.51163C1.80423 9.52472 1.68333 9.67063 1.69767 9.81686L1.97674 12.6076C1.9918 12.7535 2.13814 12.8727 2.28411 12.8578C2.43009 12.843 2.54948 12.6969 2.53488 12.5509L2.36483 10.8634C3.46398 12.1926 5.13299 13 7 13C10.3104 13 13 10.3104 13 7C13 6.84408 12.8478 6.69923 12.6904 6.71657Z" fill="#9DAEBE" stroke="#9DAEBE" stroke-width="0.4"/>
</svg>
