<svg width="59" height="59" viewBox="0 0 59 59" fill="none" xmlns="http://www.w3.org/2000/svg">
<path d="M27.4838 1.9931C24.0616 1.9931 21.285 4.77908 21.285 8.21288V16.5059C21.2837 16.5975 21.3006 16.6884 21.3346 16.7734C21.3687 16.8584 21.4192 16.9357 21.4833 17.0009C21.5474 17.0662 21.6237 17.1179 21.7079 17.1533C21.7921 17.1886 21.8825 17.2068 21.9738 17.2068C22.0651 17.2068 22.1554 17.1886 22.2396 17.1533C22.3238 17.1179 22.4002 17.0662 22.4643 17.0009C22.5284 16.9357 22.5789 16.8584 22.6129 16.7734C22.647 16.6884 22.6638 16.5975 22.6625 16.5059V8.21288C22.6625 5.52089 24.8009 3.37528 27.4838 3.37528H50.9013C53.5842 3.37528 55.7226 5.52089 55.7226 8.21288V31.7098C55.7226 34.4018 53.5842 36.5474 50.9013 36.5474H27.4838C24.8009 36.5474 22.6625 34.4018 22.6625 31.7098V27.5633C22.6638 27.4717 22.647 27.3808 22.6129 27.2958C22.5789 27.2108 22.5284 27.1335 22.4643 27.0683C22.4002 27.003 22.3238 26.9513 22.2396 26.9159C22.1554 26.8806 22.0651 26.8624 21.9738 26.8624C21.8825 26.8624 21.7921 26.8806 21.7079 26.9159C21.6237 26.9513 21.5474 27.003 21.4833 27.0683C21.4192 27.1335 21.3687 27.2108 21.3346 27.2958C21.3006 27.3808 21.2837 27.4717 21.285 27.5633V31.7098C21.285 35.1436 24.0616 37.9296 27.4838 37.9296H50.9013C54.3235 37.9296 57.1001 35.1436 57.1001 31.7098V8.21288C57.1001 4.77908 54.3235 1.9931 50.9013 1.9931H27.4838ZM8.19876 21.3435C4.77656 21.3435 2 24.1295 2 27.5633V51.0602C2 54.494 4.77656 57.28 8.19876 57.28H31.6163C35.0385 57.28 37.8151 54.494 37.8151 51.0602V42.7672C37.8164 42.6756 37.7995 42.5847 37.7655 42.4997C37.7314 42.4147 37.6809 42.3374 37.6168 42.2722C37.5527 42.2069 37.4764 42.1551 37.3922 42.1198C37.308 42.0845 37.2176 42.0662 37.1263 42.0662C37.035 42.0662 36.9447 42.0845 36.8605 42.1198C36.7763 42.1551 36.6999 42.2069 36.6358 42.2722C36.5717 42.3374 36.5212 42.4147 36.4872 42.4997C36.4531 42.5847 36.4363 42.6756 36.4376 42.7672V51.0602C36.4376 53.7522 34.2992 55.8978 31.6163 55.8978H8.19876C5.51587 55.8978 3.3775 53.7522 3.3775 51.0602V27.5633C3.3775 24.8713 5.51587 22.7257 8.19876 22.7257H31.6163C34.2992 22.7257 36.4376 24.8713 36.4376 27.5633V31.7098C36.4363 31.8014 36.4531 31.8923 36.4872 31.9773C36.5212 32.0623 36.5717 32.1396 36.6358 32.2048C36.6999 32.27 36.7763 32.3218 36.8605 32.3572C36.9447 32.3925 37.035 32.4107 37.1263 32.4107C37.2176 32.4107 37.308 32.3925 37.3922 32.3572C37.4764 32.3218 37.5527 32.27 37.6168 32.2048C37.6809 32.1396 37.7314 32.0623 37.7655 31.9773C37.7995 31.8923 37.8164 31.8014 37.8151 31.7098V27.5633C37.8151 24.1295 35.0385 21.3435 31.6163 21.3435H8.19876Z" fill="black" stroke="#2EBBE1" stroke-width="3"/>
</svg>
