<svg width="11" height="11" viewBox="0 0 11 11" fill="none" xmlns="http://www.w3.org/2000/svg">
<path d="M0.204047 10.8001C0.333293 10.9281 0.508128 11 0.690368 11C0.872608 11 1.04744 10.9281 1.17669 10.8001L5.52254 6.47021L9.86149 10.7933C9.99345 10.9059 10.1632 10.9647 10.3368 10.958C10.5104 10.9513 10.6751 10.8796 10.798 10.7572C10.9208 10.6348 10.9928 10.4707 10.9995 10.2978C11.0062 10.1248 10.9471 9.95567 10.8341 9.82419L6.49518 5.50113L10.8341 1.17808C10.9471 1.0466 11.0062 0.877473 10.9995 0.704499C10.9928 0.531524 10.9208 0.367441 10.798 0.245038C10.6751 0.122636 10.5104 0.0509293 10.3368 0.044248C10.1632 0.0375668 9.99345 0.096403 9.86149 0.208999L5.52254 4.53205L1.18359 0.202126C1.05369 0.0727069 0.877516 -1.36365e-09 0.693817 0C0.510117 1.36365e-09 0.333942 0.0727069 0.204047 0.202126C0.0741516 0.331545 0.00117741 0.507076 0.00117741 0.690102C0.00117741 0.873129 0.0741516 1.04866 0.204047 1.17808L4.54989 5.50113L0.204047 9.82419C0.139391 9.88808 0.088073 9.9641 0.0530519 10.0478C0.0180308 10.1316 0 10.2214 0 10.3122C0 10.4029 0.0180308 10.4927 0.0530519 10.5765C0.088073 10.6602 0.139391 10.7362 0.204047 10.8001Z" fill="#D2D8DE" fill-opacity="0.882"/>
</svg>
