<svg width="20" height="19" viewBox="0 0 20 19" fill="none" xmlns="http://www.w3.org/2000/svg">
<path d="M17 7H16V3C16 2.20435 15.6839 1.44129 15.1213 0.87868C14.5587 0.316071 13.7956 0 13 0H3C2.20435 0 1.44129 0.316071 0.87868 0.87868C0.316071 1.44129 0 2.20435 0 3V15C0.000559705 15.1847 0.0522438 15.3656 0.149323 15.5227C0.246403 15.6798 0.385085 15.8069 0.55 15.89C0.716045 15.9742 0.902309 16.0104 1.08782 15.9945C1.27333 15.9786 1.45071 15.9113 1.6 15.8L5.07 13.2C5.2431 13.0702 5.45363 13 5.67 13H8V14C8 14.7956 8.31607 15.5587 8.87868 16.1213C9.44129 16.6839 10.2044 17 11 17H15.39C15.5894 16.9996 15.7845 17.0588 15.95 17.17L18.45 18.83C18.6127 18.9394 18.804 18.9985 19 19C19.1641 18.9992 19.3256 18.958 19.47 18.88C19.6297 18.795 19.7633 18.6682 19.8566 18.5133C19.95 18.3583 19.9995 18.1809 20 18V10C20 9.20435 19.6839 8.44129 19.1213 7.87868C18.5587 7.31607 17.7956 7 17 7ZM3.87 11.6L2 13V3C2 2.73478 2.10536 2.48043 2.29289 2.29289C2.48043 2.10536 2.73478 2 3 2H13C13.2652 2 13.5196 2.10536 13.7071 2.29289C13.8946 2.48043 14 2.73478 14 3V10C14 10.2652 13.8946 10.5196 13.7071 10.7071C13.5196 10.8946 13.2652 11 13 11H5.67C5.02089 11 4.38929 11.2105 3.87 11.6ZM18 16.13L17.07 15.52C16.5745 15.1827 15.9894 15.0016 15.39 15H11C10.7348 15 10.4804 14.8946 10.2929 14.7071C10.1054 14.5196 10 14.2652 10 14V13H13C13.7956 13 14.5587 12.6839 15.1213 12.1213C15.6839 11.5587 16 10.7956 16 10V9H17C17.2652 9 17.5196 9.10536 17.7071 9.29289C17.8946 9.48043 18 9.73478 18 10V16.13Z" fill="#9DADBB"/>
<path d="M6 6H10C10.2652 6 10.5196 5.89464 10.7071 5.70711C10.8946 5.51957 11 5.26522 11 5C11 4.73478 10.8946 4.48043 10.7071 4.29289C10.5196 4.10536 10.2652 4 10 4H6C5.73478 4 5.48043 4.10536 5.29289 4.29289C5.10536 4.48043 5 4.73478 5 5C5 5.26522 5.10536 5.51957 5.29289 5.70711C5.48043 5.89464 5.73478 6 6 6Z" fill="#9DADBB"/>
<path d="M11 8C11 7.73478 10.8946 7.48043 10.7071 7.29289C10.5196 7.10536 10.2652 7 10 7H6C5.73478 7 5.48043 7.10536 5.29289 7.29289C5.10536 7.48043 5 7.73478 5 8C5 8.26522 5.10536 8.51957 5.29289 8.70711C5.48043 8.89464 5.73478 9 6 9H10C10.2652 9 10.5196 8.89464 10.7071 8.70711C10.8946 8.51957 11 8.26522 11 8Z" fill="#9DADBB"/>
</svg>
