<svg width="22" height="21" viewBox="0 0 22 21" fill="none" xmlns="http://www.w3.org/2000/svg">
<path d="M9.03951 0C4.56516 0 0.919922 3.64521 0.919922 8.11959C0.919922 12.594 4.56516 16.2392 9.03951 16.2392C10.9746 16.2392 12.7521 15.5551 14.1493 14.4193L19.644 19.914C19.972 20.242 20.5059 20.242 20.8339 19.914C21.1619 19.586 21.1619 19.0608 20.8339 18.7328L15.3392 13.2381C16.4773 11.8403 17.1591 10.0569 17.1591 8.11959C17.1591 3.64521 13.5139 0 9.03951 0ZM9.03951 1.67991C12.606 1.67991 15.4792 4.55311 15.4792 8.11959C15.4792 11.686 12.606 14.5593 9.03951 14.5593C5.47307 14.5593 2.59984 11.686 2.59984 8.11959C2.59984 4.55311 5.47306 1.67991 9.03951 1.67991Z" fill="#9DADBB"/>
</svg>
