<svg width="50" height="50" viewBox="0 0 50 50" fill="none" xmlns="http://www.w3.org/2000/svg">
<path fill-rule="evenodd" clip-rule="evenodd" d="M47.5135 37.41C45.8385 34.2687 39.6593 30.6768 39.6593 30.6768C38.2614 29.8874 36.576 29.7985 35.7781 31.208C35.7781 31.208 33.7697 33.597 33.2593 33.9401C30.926 35.5066 28.7677 35.4467 26.5864 33.2829L21.5177 28.2547L16.4489 23.2265C14.2677 21.0627 14.2072 18.9216 15.7864 16.607C16.1322 16.1006 18.5406 14.1084 18.5406 14.1084C19.9614 13.3168 19.8718 11.6449 19.076 10.2582C19.076 10.2582 15.4552 4.12842 12.2885 2.46682C10.9406 1.76002 9.28849 2.00596 8.20932 3.07442L5.97182 5.29609C-1.12818 12.3393 2.36765 20.2918 9.46765 27.335L15.9552 33.7727L22.4447 40.2083C29.5447 47.2515 37.5614 50.7194 44.6614 43.6762L46.8989 41.4545C47.9781 40.386 48.226 38.7451 47.5135 37.41Z" stroke="#2EBBE1" stroke-width="4" stroke-linecap="round"/>
<path d="M43.8333 7L32.8333 19" stroke="#2EBBE1" stroke-width="4" stroke-linecap="round"/>
<path d="M32 19.5999V11.3333" stroke="#2EBBE1" stroke-width="4" stroke-linecap="round"/>
<path d="M32 19.5999H40.3333" stroke="#2EBBE1" stroke-width="4" stroke-linecap="round"/>
</svg>
