<svg width="20" height="20" viewBox="0 0 20 20" fill="none" xmlns="http://www.w3.org/2000/svg">
<path d="M18.9512 8.9976C18.7303 8.99691 18.5158 8.92307 18.3412 8.7876L9.95121 2.2676L1.56121 8.7876C1.35053 8.93045 1.0933 8.98759 0.841956 8.94736C0.59061 8.90713 0.364066 8.77256 0.208497 8.57109C0.0529287 8.36961 -0.0199533 8.1164 0.00470603 7.86305C0.0293654 7.6097 0.14971 7.37529 0.341211 7.2076L9.34121 0.207599C9.51607 0.0729905 9.73054 0 9.95121 0C10.1719 0 10.3864 0.0729905 10.5612 0.207599L19.5612 7.2076C19.7257 7.33525 19.8462 7.51107 19.906 7.71051C19.9658 7.90996 19.9618 8.12309 19.8947 8.32017C19.8275 8.51725 19.7005 8.68845 19.5314 8.80989C19.3622 8.93133 19.1594 8.99695 18.9512 8.9976Z" fill="#9DADBB"/>
<path d="M13.9512 19.9976H5.95117C5.15552 19.9976 4.39246 19.6815 3.82985 19.1189C3.26724 18.5563 2.95117 17.7932 2.95117 16.9976V10.9976C2.95117 10.7323 3.05653 10.478 3.24407 10.2905C3.4316 10.1029 3.68596 9.99756 3.95117 9.99756C4.21639 9.99756 4.47074 10.1029 4.65828 10.2905C4.84581 10.478 4.95117 10.7323 4.95117 10.9976V16.9976C4.95117 17.2628 5.05653 17.5171 5.24407 17.7047C5.4316 17.8922 5.68596 17.9976 5.95117 17.9976H13.9512C14.2164 17.9976 14.4707 17.8922 14.6583 17.7047C14.8458 17.5171 14.9512 17.2628 14.9512 16.9976V10.9976C14.9512 10.7323 15.0565 10.478 15.2441 10.2905C15.4316 10.1029 15.686 9.99756 15.9512 9.99756C16.2164 9.99756 16.4707 10.1029 16.6583 10.2905C16.8458 10.478 16.9512 10.7323 16.9512 10.9976V16.9976C16.9512 17.7932 16.6351 18.5563 16.0725 19.1189C15.5099 19.6815 14.7468 19.9976 13.9512 19.9976Z" fill="#9DADBB"/>
</svg>
