<svg width="9" height="10" viewBox="0 0 9 10" fill="none" xmlns="http://www.w3.org/2000/svg">
<path d="M7.6145 6.42546C7.3418 6.13613 6.9763 5.99438 6.6163 5.99438C6.2563 5.99438 5.8908 6.13624 5.6181 6.42546L5.4381 6.61266L3.1417 4.22441L3.3217 4.03721C3.5999 3.74788 3.7362 3.37348 3.7362 2.99908C3.7362 2.62468 3.5998 2.24456 3.3217 1.96095L2.28 0.871861C2.0509 0.633597 1.7509 0.520133 1.4564 0.520133C1.0691 0.514413 0.6709 0.724389 0.4637 1.12146C0.1527 1.70584 0 2.35251 0 2.99918C0 3.99186 0.365499 4.99026 1.0964 5.7505L3.9709 8.73998C4.7018 9.50012 5.6618 9.88024 6.6164 9.88024C7.2382 9.88024 7.86 9.72143 8.4219 9.39809C8.8036 9.17678 9 8.76265 9 8.36558C9 8.0593 8.8909 7.7473 8.6618 7.50904L7.6145 6.42546Z" fill="#C1C1C1"/>
<path d="M8.5909 0.521118H6.6054C6.3818 0.521118 6.1963 0.708318 6.1963 0.946582C6.1963 1.17913 6.3818 1.37205 6.6054 1.37205H7.6036L5.8472 3.1987C5.689 3.36323 5.689 3.62978 5.8472 3.80003C6.0054 3.96456 6.2672 3.96456 6.4254 3.80003L8.1818 1.97327V3.0114C8.1818 3.24394 8.3673 3.43686 8.5909 3.43686C8.8145 3.43686 9 3.24394 9 3.0114V0.946478C9 0.833014 8.9564 0.72527 8.88 0.645814C8.8036 0.566358 8.7 0.521118 8.5909 0.521118Z" fill="#C1C1C1"/>
</svg>
