<svg width="68" height="56" viewBox="0 0 68 56" fill="none" xmlns="http://www.w3.org/2000/svg">
<path d="M62.2481 19.8688H61.8183V14.8946C61.8183 11.824 59.3004 9.30618 56.2299 9.30618H55.5544V6.6041C55.5544 3.2265 52.7909 0.463013 49.4133 0.463013H14.9004C11.5228 0.463013 8.75928 3.2265 8.75928 6.6041V43.3892C8.75928 46.4598 11.2771 48.9776 14.3477 48.9776H56.2299C59.3004 48.9776 61.8183 46.4598 61.8183 43.3892V37.1253H62.2481C64.9502 37.1253 67.0996 34.9759 67.0996 32.2738V24.7203C67.0996 22.0796 64.9502 19.8688 62.2481 19.8688ZM14.9004 3.90202H49.3519C50.8257 3.90202 52.0539 5.13024 52.0539 6.6041V9.30618H14.9004C13.4265 9.30618 12.1983 8.07796 12.1983 6.6041C12.1983 5.13024 13.4265 3.90202 14.9004 3.90202ZM58.3793 43.3892C58.3793 44.556 57.3967 45.5386 56.2299 45.5386H14.3477C13.1809 45.5386 12.1983 44.556 12.1983 43.3892V12.1311C12.9966 12.561 13.9178 12.7452 14.9004 12.7452H52.4224H56.1685C57.3353 12.7452 58.3178 13.7278 58.3178 14.8946V19.8688H51.9925C47.8166 19.8688 44.439 23.2464 44.439 27.4224V29.6332C44.439 33.8091 47.8166 37.1867 51.9925 37.1867H58.3178V43.3892H58.3793ZM63.6606 32.2738C63.6606 33.0722 63.0465 33.6863 62.2481 33.6863H51.9925C49.7203 33.6863 47.9394 31.844 47.9394 29.6332V27.4224C47.9394 25.1502 49.7817 23.3693 51.9925 23.3693H62.2481C63.0465 23.3693 63.6606 23.9834 63.6606 24.7817V32.2738Z" fill="#2EBBE1"/>
<path d="M53.6508 31.2298C55.1431 31.2298 56.3529 30.0201 56.3529 28.5278C56.3529 27.0354 55.1431 25.8257 53.6508 25.8257C52.1585 25.8257 50.9487 27.0354 50.9487 28.5278C50.9487 30.0201 52.1585 31.2298 53.6508 31.2298Z" fill="#2EBBE1"/>
<circle cx="16.7074" cy="38.8448" r="14.7074" fill="white" stroke="#2EBBE1" stroke-width="4"/>
<path d="M14.5516 43.8119C14.5516 44.088 14.7755 44.3119 15.0516 44.3119H18.363C18.6391 44.3119 18.863 44.088 18.863 43.8119V39.3448H21.6743C21.8766 39.3448 22.0589 39.223 22.1363 39.0361C22.2137 38.8493 22.1709 38.6342 22.0279 38.4912L17.0608 33.5242C16.8656 33.3289 16.549 33.3289 16.3537 33.5242L11.3867 38.4912C11.2437 38.6342 11.2009 38.8493 11.2783 39.0361C11.3557 39.223 11.538 39.3448 11.7402 39.3448H14.5516V43.8119Z" fill="#2EBBE1" stroke="#2EBBE1" stroke-linejoin="round"/>
</svg>
