<svg width="16" height="17" viewBox="0 0 16 17" fill="none" xmlns="http://www.w3.org/2000/svg">
<path d="M15.731 5.64692C14.5983 1.6063 10.2372 -0.807347 5.95165 0.247506C1.68497 1.30236 -0.863715 5.45025 0.269033 9.49088C0.797649 11.4039 2.06255 12.9594 3.70504 13.9427L1.59057 17L10.0295 14.8903C14.3151 13.8354 16.8638 9.68755 15.731 5.64692ZM8.70801 11.386H7.19768V10.1703H8.70801V11.386ZM8.72689 8.56118V9.25845H7.21656V7.23814H7.97172C8.59473 7.23814 9.10447 6.75541 9.10447 6.16541C9.10447 5.57541 8.59473 5.09268 7.97172 5.09268C7.34871 5.09268 6.83897 5.57541 6.83897 6.16541H5.32864C5.32864 4.78874 6.51803 3.66237 7.97172 3.66237C9.42541 3.66237 10.6148 4.78874 10.6148 6.16541C10.6148 7.29178 9.82188 8.25724 8.72689 8.56118Z" fill="#2EBBE1"/>
</svg>
