<svg width="26" height="26" viewBox="0 0 26 26" fill="none" xmlns="http://www.w3.org/2000/svg">
<path fill-rule="evenodd" clip-rule="evenodd" d="M13 0C5.82 0 0 5.82 0 13C0 20.18 5.82 26 13 26C20.18 26 26 20.18 26 13C26 5.82 20.18 0 13 0ZM13.7078 6.4004L18.2738 10.9664C18.6648 11.3574 18.6648 11.9894 18.2738 12.3804C17.8828 12.7714 17.2508 12.7714 16.8598 12.3804L13.9948 9.5154V19.0044C13.9948 19.5574 13.5468 20.0044 12.9948 20.0044C12.4418 20.0044 11.9948 19.5574 11.9948 19.0044V9.5274L9.1408 12.3804C8.9458 12.5754 8.6898 12.6734 8.4338 12.6734C8.1778 12.6734 7.9218 12.5754 7.7268 12.3804C7.3358 11.9904 7.3358 11.3574 7.7268 10.9664L12.2938 6.4004C12.4808 6.2124 12.7348 6.1074 13.0008 6.1074C13.2658 6.1074 13.5198 6.2124 13.7078 6.4004Z" fill="#CBD7D9"/>
</svg>
