<svg width="24" height="23" viewBox="0 0 24 23" fill="none" xmlns="http://www.w3.org/2000/svg">
<path d="M19.897 8.41411H18.7487V3.82117C18.7487 2.90758 18.3858 2.0314 17.7398 1.3854C17.0938 0.739388 16.2176 0.376465 15.304 0.376465H3.82166C2.90807 0.376465 2.03189 0.739388 1.38588 1.3854C0.739877 2.0314 0.376953 2.90758 0.376953 3.82117V17.6C0.377596 17.812 0.436941 18.0198 0.548411 18.2001C0.659881 18.3805 0.819122 18.5265 1.00848 18.6219C1.19914 18.7186 1.41302 18.7602 1.62602 18.742C1.83903 18.7237 2.04271 18.6463 2.21413 18.5186L6.19851 15.5332C6.39726 15.3841 6.639 15.3035 6.88745 15.3035H9.56284V16.4518C9.56284 17.3654 9.92576 18.2415 10.5718 18.8875C11.2178 19.5335 12.0939 19.8965 13.0075 19.8965H18.0483C18.2773 19.896 18.5012 19.9639 18.6913 20.0917L21.5619 21.9977C21.7487 22.1233 21.9683 22.1912 22.1934 22.1929C22.3819 22.192 22.5672 22.1447 22.7331 22.0551C22.9164 21.9575 23.0699 21.812 23.177 21.634C23.2842 21.4561 23.3411 21.2524 23.3417 21.0447V11.8588C23.3417 10.9452 22.9787 10.0691 22.3327 9.42304C21.6867 8.77703 20.8105 8.41411 19.897 8.41411ZM4.82062 13.696L2.67342 15.3035V3.82117C2.67342 3.51664 2.7944 3.22458 3.00973 3.00925C3.22507 2.79391 3.51713 2.67294 3.82166 2.67294H15.304C15.6085 2.67294 15.9006 2.79391 16.1159 3.00925C16.3313 3.22458 16.4522 3.51664 16.4522 3.82117V11.8588C16.4522 12.1633 16.3313 12.4554 16.1159 12.6707C15.9006 12.8861 15.6085 13.0071 15.304 13.0071H6.88745C6.14212 13.0071 5.41689 13.2488 4.82062 13.696ZM21.0452 18.8975L19.9773 18.1971C19.4084 17.8098 18.7365 17.6019 18.0483 17.6H13.0075C12.703 17.6 12.411 17.479 12.1956 17.2637C11.9803 17.0483 11.8593 16.7563 11.8593 16.4518V15.3035H15.304C16.2176 15.3035 17.0938 14.9406 17.7398 14.2946C18.3858 13.6486 18.7487 12.7724 18.7487 11.8588V10.7106H19.897C20.2015 10.7106 20.4935 10.8316 20.7089 11.0469C20.9242 11.2622 21.0452 11.5543 21.0452 11.8588V18.8975Z" fill="#2EBBE1"/>
<path d="M7.2664 7.26589H11.8593C12.1639 7.26589 12.4559 7.14492 12.6713 6.92958C12.8866 6.71425 13.0076 6.42219 13.0076 6.11766C13.0076 5.81313 12.8866 5.52107 12.6713 5.30573C12.4559 5.0904 12.1639 4.96942 11.8593 4.96942H7.2664C6.96187 4.96942 6.66981 5.0904 6.45447 5.30573C6.23914 5.52107 6.11816 5.81313 6.11816 6.11766C6.11816 6.42219 6.23914 6.71425 6.45447 6.92958C6.66981 7.14492 6.96187 7.26589 7.2664 7.26589Z" fill="#2EBBE1"/>
<path d="M13.0076 9.56236C13.0076 9.25783 12.8866 8.96577 12.6713 8.75043C12.4559 8.5351 12.1639 8.41412 11.8593 8.41412H7.2664C6.96187 8.41412 6.66981 8.5351 6.45447 8.75043C6.23914 8.96577 6.11816 9.25783 6.11816 9.56236C6.11816 9.86689 6.23914 10.1589 6.45447 10.3743C6.66981 10.5896 6.96187 10.7106 7.2664 10.7106H11.8593C12.1639 10.7106 12.4559 10.5896 12.6713 10.3743C12.8866 10.1589 13.0076 9.86689 13.0076 9.56236Z" fill="#2EBBE1"/>
</svg>
