<svg width="75" height="75" viewBox="0 0 75 75" fill="none" xmlns="http://www.w3.org/2000/svg">
<path d="M63.8848 42.3109C64.1321 42.0564 64.2688 41.7146 64.2652 41.3598L64.2176 24.9532C64.2212 24.5984 64.0845 24.2565 63.8372 24.0021L46.0991 6.26393C44.9639 5.12881 43.4244 4.4911 41.8191 4.4911C40.2138 4.4911 38.6742 5.12881 37.5391 6.26393L6.15259 37.6504C5.01747 38.7856 4.37977 40.3251 4.37977 41.9304C4.37977 43.5357 5.01747 45.0753 6.15259 46.2104L28.7889 68.8467C29.9241 69.9819 31.4636 70.6196 33.0689 70.6196C34.6742 70.6196 36.2138 69.9819 37.3489 68.8467L63.8848 42.3109ZM35.4467 66.9445C34.8161 67.5751 33.9607 67.9294 33.0689 67.9294C32.1771 67.9294 31.3218 67.5751 30.6911 66.9445L8.05481 44.3082C7.42418 43.6776 7.0699 42.8223 7.0699 41.9304C7.0699 41.0386 7.42419 40.1833 8.05481 39.5527L39.4413 8.16614C40.0719 7.53552 40.9273 7.18124 41.8191 7.18124C42.7109 7.18124 43.5662 7.53552 44.1969 8.16614L61.5546 25.5238L61.5546 40.8367L35.4467 66.9445Z" fill="#2EBBE1" stroke="#2EBBE1" stroke-width="2"/>
<path d="M25.3651 28.2345L13.5713 40.0282C13.3191 40.2805 13.1774 40.6226 13.1774 40.9793C13.1774 41.3361 13.3191 41.6782 13.5713 41.9304L32.5935 60.9526C32.8457 61.2048 33.1878 61.3465 33.5446 61.3465C33.9013 61.3465 34.2434 61.2048 34.4957 60.9526L46.2894 49.1588C46.5417 48.9066 46.6834 48.5645 46.6834 48.2077C46.6834 47.851 46.5417 47.5089 46.2894 47.2566L27.2673 28.2345C27.015 27.9822 26.6729 27.8405 26.3162 27.8405C25.9594 27.8405 25.6173 27.9822 25.3651 28.2345ZM26.3162 31.0878L43.4361 48.2077L33.5446 58.0992L16.4247 40.9793L26.3162 31.0878Z" fill="#2EBBE1" stroke="#2EBBE1" stroke-width="2"/>
<path d="M37.6819 17.8199C37.9341 18.0721 38.2763 18.2138 38.633 18.2138C38.9897 18.2138 39.3319 18.0721 39.5841 17.8199L42.1996 15.2043C42.4519 14.9521 42.5936 14.61 42.5936 14.2532C42.5936 13.8965 42.4519 13.5544 42.1996 13.3021C41.9474 13.0499 41.6053 12.9082 41.2485 12.9082C40.8918 12.9082 40.5497 13.0499 40.2974 13.3021L37.6819 15.9177C37.4296 16.1699 37.2879 16.512 37.2879 16.8688C37.2879 17.2255 37.4296 17.5676 37.6819 17.8199Z" fill="#2EBBE1" stroke="#2EBBE1" stroke-width="2"/>
<path d="M42.4373 22.5754C42.6895 22.8276 43.0316 22.9693 43.3884 22.9693C43.7451 22.9693 44.0872 22.8276 44.3395 22.5754L46.955 19.9598C47.2073 19.7076 47.349 19.3655 47.349 19.0087C47.349 18.652 47.2073 18.3099 46.955 18.0576C46.7028 17.8054 46.3606 17.6637 46.0039 17.6637C45.6472 17.6637 45.305 17.8054 45.0528 18.0576L42.4373 20.6732C42.185 20.9254 42.0433 21.2675 42.0433 21.6243C42.0433 21.981 42.185 22.3231 42.4373 22.5754Z" fill="#2EBBE1" stroke="#2EBBE1" stroke-width="2"/>
<path d="M47.1929 27.3309C47.4451 27.5832 47.7872 27.7249 48.144 27.7249C48.5007 27.7249 48.8428 27.5832 49.0951 27.3309L51.7106 24.7154C51.9629 24.4631 52.1046 24.121 52.1046 23.7643C52.1046 23.4075 51.9629 23.0654 51.7106 22.8132C51.4584 22.5609 51.1163 22.4192 50.7595 22.4192C50.4028 22.4192 50.0607 22.5609 49.8084 22.8132L47.1929 25.4287C46.9406 25.681 46.7989 26.0231 46.7989 26.3798C46.7989 26.7365 46.9406 27.0787 47.1929 27.3309Z" fill="#2EBBE1" stroke="#2EBBE1" stroke-width="2"/>
</svg>
