<svg width="16" height="16" viewBox="0 0 16 16" fill="none" xmlns="http://www.w3.org/2000/svg">
<path fill-rule="evenodd" clip-rule="evenodd" d="M16 4.19048C16 4.40087 15.8294 4.57143 15.619 4.57143C15.4087 4.57143 15.2381 4.40087 15.2381 4.19048V1.14271C15.2381 0.931866 15.0685 0.761905 14.8582 0.761905L1.14182 0.761905C0.931569 0.761905 0.761905 0.931412 0.761905 1.14183L0.761905 14.8582C0.761905 15.0684 0.931412 15.2381 1.14182 15.2381L14.8582 15.2381C15.0692 15.2381 15.2381 15.0694 15.2381 14.8573L15.2381 11.8095C15.2381 11.5991 15.4087 11.4286 15.619 11.4286C15.8294 11.4286 16 11.5991 16 11.8095L16 14.8573C16 15.4905 15.4897 16 14.8582 16L1.14182 16C0.510466 16 0 15.4891 0 14.8582L0 1.14183C0 0.510466 0.510939 0 1.14182 0L14.8582 0C15.4896 0 16 0.511434 16 1.14271V4.19048ZM13.9839 8.26029L9.38181 12.834C9.02259 13.1929 8.48396 12.6548 8.84318 12.2959L12.4945 8.64967C12.6423 8.50202 12.5948 8.38055 12.3862 8.38055L3.19593 8.38055C2.99082 8.38055 2.81819 8.21017 2.81819 8C2.81819 7.78836 2.98731 7.61945 3.19593 7.61945L12.3862 7.61945C12.5913 7.61945 12.6433 7.49896 12.4945 7.35033L8.84318 3.70409C8.48396 3.34523 9.02259 2.80713 9.38181 3.16599L13.9839 7.72673C14.1323 7.87381 14.1324 8.11274 13.9839 8.26029Z" fill="#9DADBB"/>
</svg>
